<svg width="18" height="18" xmlns="http://www.w3.org/2000/svg">

 <g>
  <title>background</title>
  <rect fill="none" id="canvas_background" height="20" width="20" y="-1" x="-1"/>
 </g>
 <g>
  <title>Layer 1</title>
  <path fill="#000000" fill-opacity="0.6" id="svg_1" d="m5.480984,8.338913c0.986911,1.939554 2.576934,3.529576 4.516488,4.516487l1.50778,-1.507779c0.191899,-0.1919 0.459188,-0.246729 0.699062,-0.171339c0.767596,0.253581 1.590022,0.390652 2.446715,0.390652a0.685355,0.685355 0 0 1 0.685355,0.685355l0,2.398741a0.685355,0.685355 0 0 1 -0.685355,0.685355a11.65103,11.65103 0 0 1 -11.65103,-11.65103a0.685355,0.685355 0 0 1 0.685355,-0.685355l2.398741,0a0.685355,0.685355 0 0 1 0.685355,0.685355c0,0.856693 0.137071,1.679119 0.390652,2.446716c0.075389,0.239874 0.020561,0.507163 -0.171339,0.699062l-1.507781,1.50778z"/>
 </g>
</svg>