<svg width="18" height="18" xmlns="http://www.w3.org/2000/svg">

 <g>
  <title>background</title>
  <rect fill="none" id="canvas_background" height="20" width="20" y="-1" x="-1"/>
 </g>
 <g>
  <title>Layer 1</title>
  <path fill="#000000" fill-opacity="0.54" id="svg_1" d="m8.186678,4.741465l3.590163,0l0,1.436066l-3.590163,0l0,-1.436066m-2.154098,2.154096l0,-4.308196l7.898359,0l0,4.308196a2.154097,2.154097 0 0 1 2.154094,2.154093l0,4.308192l-2.154094,0l0,2.154112l-7.898359,0l0,-2.154112l-0.718031,0l0,-6.462285l0.718031,0m1.436065,-2.872128l0,2.872128l5.026229,0l0,-2.872128l-5.026229,0m0,7.180316l0,2.872129l5.026229,0l0,-2.872129l-5.026229,0m6.462295,-2.872128a0.718032,0.718032 0 0 0 -0.718033,0.718033a0.718032,0.718032 0 0 0 0.718033,0.718031a0.718032,0.718032 0 0 0 0.718033,-0.718031a0.718032,0.718032 0 0 0 -0.718033,-0.718033m-10.770487,-1.43606l0.718032,0a0.718032,0.718032 0 0 1 0.718032,0.718028l0,5.026224a0.718032,0.718032 0 0 1 -0.718032,0.718033l-0.718032,0a1.436065,1.436065 0 0 1 -1.436065,-1.436064l0,-3.590161a1.436065,1.436065 0 0 1 1.436065,-1.43606z"/>
 </g>
</svg>